<?xml version="1.0" encoding="UTF-8"?>
<svg id="_圖層_1" data-name="圖層 1" xmlns="http://www.w3.org/2000/svg" viewBox="0 0 75.545 88.059">
  <path d="M36.175,87.047c-1.094-.72,2.184-10.165,2.259-12.375.021-.621-.377-3.78-.688-3.796-1.445,3.75-2.686,2.199-5.39,2.697-2.028.373-1.043,2.295-1.413,3.487-1.035,3.329-2.999,6.315-6.338,7.621-3.686,1.442-3.89-.769-4.372-.77-.379,0-3.597,3.601-6.316,4.006-1.456.217-7.341.353-8.059-.864-1.653-2.801,2.002-9.507,3.373-12.126-.843.018-4.049.092-4.427-.516-1.829-2.942,7.232-12.778,10.713-12.967-3.984-3.716-.201-3.694,1.796-6.725-3.277-2.495-14.407,4.223-16.158,3.386-2.713-1.296.083-8.526.997-10.694,2.476-5.868,8.554-11.705,14.705-13.587,1.596-.488,6.068-.466,6.752-.883.415-.252,4.321-6.772,5.394-8.078C36.549,15.681,55.268.283,67.394.039c3.718-.075,4.561-.366,5.738,3.16,1.024,3.07,2.266,8.675,2.401,11.841.389,9.132-8.611,30.266-14.024,37.839-.624.873-4.097,4.506-4.156,4.819s1.432,3.739,1.52,5.081c.615,9.347-4.351,16.985-11.96,22.207-.518.356-3.084,1.982-3.328,2.061-1.402.45-7.41,0-7.41,0ZM72.101,20.587c1.307-2.178-1.195-17.051-2.22-17.766-2.734-1.907-13.378,3.018-16.19,4.749,3.234,6.7,11.165,12.047,18.409,13.017ZM51.871,9.826c-.684-.482-2.978,1.38-3.713,1.859-8.425,5.492-17.558,14.639-22.247,23.558-1.798,3.42-5.754,12.222-6.259,15.771-.415,2.911,2.871,3.642,4.626,5.451,1.873-2.321,3.829-4.535,6.364-6.162.909-.583,6.829-3.711,7.328-3.225.238,5.792-1.994,11.278-4.524,16.351,2.928,1.394,3.546,4.04,7.226,3.191,6.645-1.533,18.093-14.868,21.335-20.879,1.311-2.43,9.681-20.979,8.748-22.01-7.455-1.895-15.754-6.547-18.883-13.905ZM22.251,35.406c-10.17,1.6-17.573,9.21-19.306,19.305,4.476-1.562,9.077-3.085,13.902-3.16.624-5.739,3.698-10.754,5.404-16.145ZM34.825,51.123c-6.975,2.627-11.927,10.761-13.018,17.958,7.676-1.232,11.707-11.064,13.018-17.958ZM21.348,61.898c2.235-2.864-1.426-7.125-3.623-3.823-1.303,1.959,3.273,4.083,3.623,3.823ZM55.033,60.553c-3.575,1.432-5.529,5.07-8.913,7.025-1.068.617-4.922,1.871-5.238,2.396-.812,1.348.178,4.016.11,5.496-.138,3.05-1.278,5.892-1.674,8.881,3.131.531,5.2-1.265,7.422-3.13,5.88-4.933,11.162-12.758,8.293-20.667ZM20.008,64.593c-.08-.3-2.107-1.305-2.503-1.345-3.004-.303-8.54,6.321-10.063,8.755-.007,1.074,4.472.576,5.382.674.193,2.551-1.89,4.35-2.912,6.744-.345.808-1.981,5.429-1.581,5.827,2.116.01,3.932.24,5.945-.565,1.824-.73,6.407-5.571,6.848-5.607,1.736-.139,1.904,2.461,2.032,2.582,1.097,1.041,4.409-3.722,4.726-4.926.151-.575.717-4.594.658-4.955-.491-3.037-5.868,1.414-8.968-1.135-2.038-1.675.758-4.847.436-6.051ZM31.55,65.987c-.733.191-1.832,1.913-2.553,2.423,1.377,1.478,5.758,4.131,6.215.791.17-1.241-2.76-3.449-3.663-3.214Z" style="fill: #070d0d;"/>
  <path d="M51.871,9.826c3.129,7.358,11.428,12.011,18.883,13.905.933,1.032-7.438,19.58-8.748,22.01-3.242,6.011-14.69,19.346-21.335,20.879-3.68.849-4.298-1.797-7.226-3.191,2.53-5.073,4.762-10.559,4.524-16.351-.499-.487-6.419,2.641-7.328,3.225-2.535,1.627-4.491,3.841-6.364,6.162-1.755-1.81-5.041-2.54-4.626-5.451.506-3.549,4.461-12.351,6.259-15.771,4.689-8.919,13.823-18.066,22.247-23.558.735-.479,3.029-2.341,3.713-1.859ZM61.646,33.85c0-7.041-5.708-12.749-12.749-12.749s-12.749,5.708-12.749,12.749,5.708,12.749,12.749,12.749,12.749-5.708,12.749-12.749Z" style="fill: #d9e3e2;"/>
  <path d="M72.101,20.587c-7.244-.969-15.175-6.317-18.409-13.017,2.812-1.731,13.455-6.657,16.19-4.749,1.025.715,3.527,15.588,2.22,17.766Z" style="fill: #bc3220;"/>
  <path d="M55.033,60.553c2.869,7.91-2.414,15.734-8.293,20.667-2.222,1.864-4.291,3.661-7.422,3.13.396-2.988,1.536-5.83,1.674-8.881.067-1.48-.922-4.148-.11-5.496.316-.525,4.17-1.779,5.238-2.396,3.384-1.955,5.338-5.593,8.913-7.025Z" style="fill: #bb3221;"/>
  <path d="M22.251,35.406c-1.705,5.391-4.78,10.407-5.404,16.145-4.824.075-9.426,1.598-13.902,3.16,1.732-10.095,9.136-17.705,19.306-19.305Z" style="fill: #bc3220;"/>
  <path d="M20.008,64.593c-3.715.386-10.782,7.272-2.695,5.842.332.257-2.884,3.814-3.046,4.358-1.624,5.442,4.666.482,5.49.546.267.021.456.962.968,1.336,2.268,1.653,5.998-3.839,7.815-4.897.058.361-.507,4.38-.658,4.955-.316,1.204-3.628,5.967-4.726,4.926-.128-.122-.296-2.721-2.032-2.582-.441.035-5.024,4.877-6.848,5.607-2.013.805-3.829.575-5.945.565-.399-.398,1.236-5.019,1.581-5.827,1.022-2.394,3.106-4.193,2.912-6.744-.91-.098-5.389.4-5.382-.674,1.523-2.434,7.059-9.058,10.063-8.755.396.04,2.422,1.045,2.503,1.345Z" style="fill: #e9a020;"/>
  <path d="M34.825,51.123c-1.311,6.894-5.342,16.726-13.018,17.958,1.091-7.197,6.044-15.332,13.018-17.958Z" style="fill: #bb3121;"/>
  <path d="M20.008,64.593c.322,1.203-2.474,4.375-.436,6.051,3.1,2.549,8.477-1.903,8.968,1.135-1.817,1.058-5.548,6.55-7.815,4.897-.512-.373-.701-1.315-.968-1.336-.824-.064-7.114,4.896-5.49-.546.162-.544,3.378-4.101,3.046-4.358-8.087,1.43-1.02-5.456,2.695-5.842Z" style="fill: #ec6530;"/>
  <path d="M31.55,65.987c.903-.235,3.833,1.973,3.663,3.214-.458,3.341-4.839.687-6.215-.791.721-.51,1.82-2.233,2.553-2.423Z" style="fill: #616c6c;"/>
  <path d="M21.348,61.898c-.35.26-4.926-1.864-3.623-3.823.397-.597.913-1.448,1.508-1.423,1.564.065,3.446,2.324,3.446,2.324,0,0-.562,1.935-1.332,2.921Z" style="fill: #606b6b;"/>
  <path d="M61.646,33.85c0,7.041-5.708,12.749-12.749,12.749s-12.749-5.708-12.749-12.749,5.708-12.749,12.749-12.749,12.749,5.708,12.749,12.749ZM58.474,33.748c0-5.419-4.393-9.812-9.812-9.812s-9.812,4.393-9.812,9.812,4.393,9.812,9.812,9.812,9.812-4.393,9.812-9.812Z" style="fill: #060c0d;"/>
  <path d="M58.474,33.748c0,5.419-4.393,9.812-9.812,9.812s-9.812-4.393-9.812-9.812,4.393-9.812,9.812-9.812,9.812,4.393,9.812,9.812ZM47.284,26.083c-9.617,1.66-7.643,16.453,3.381,14.601,9.767-1.64,7.718-16.517-3.381-14.601Z" style="fill: #606b6b;"/>
  <path d="M47.284,26.083c11.099-1.916,13.148,12.961,3.381,14.601-11.024,1.851-12.998-12.941-3.381-14.601ZM47.27,28.765c-4.738,1.083-4.724,9.295,2.163,8.915s6.221-10.832-2.163-8.915Z" style="fill: #060b0b;"/>
  <path d="M47.27,28.765c8.384-1.917,9.08,8.534,2.163,8.915s-6.902-7.832-2.163-8.915Z" style="fill: #9bc9c8;"/>
</svg>